/* XPM */
static char * collectible_xpm[] = {
"32 32 13 1",
" 	c #40264D",
".	c #644574",
"+	c #563767",
"@	c #17111A",
"#	c #7F4A44",
"$	c #8F5248",
"%	c #A75F4E",
"&	c #432C3A",
"*	c #915448",
"=	c #CF7957",
"-	c #A7604E",
";	c #36212C",
">	c #472B39",
"                                ",
"   ..........................   ",
"  .++++++++++++++++++++++++++.  ",
" .++++++++@@@@++++++++++++++++. ",
" .+++++++@#$$$@+++++++++++++++. ",
" .++++++@%%$$$#@++++++++..++++. ",
" .++++++@%%%$$$#@++++++++.++++. ",
" .+++++@%%%%$$$$#@++++++++++++. ",
" .+++++@%%%%$$$$##@+++++++++++. ",
" .++++.@%%%$$$$$###@++++++++++. ",
" .++++@$$%$$$$$$####@+++++++++. ",
" .++++@$$$$$$$$$#####@++++++++. ",
" .++++@$$$$$$$$$#####@++++++++. ",
" .++++@$$$$$$$$######@++++++++. ",
" .+++@$$$$$$$$######@+++++++++. ",
" .+++@$$$$$$$######@++++++.+++. ",
" .++++@$$$$$######@+++++@@ .++. ",
" .+++++@########&@++++@@**@ .+. ",
" .++++++@@###&&&=@+++@--**#@++. ",
" .++++++++@&&====@++@*--**#;++. ",
" .+++@@@+++@=====@++@*-***##@+. ",
" .++@-*#@++@======@++@***###@+. ",
" .+@--*##@+@======@++@######@+. ",
" .+@-*###@++@=====@+++@####@++. ",
" .+@**#>@++++@===@+++@=&&&@+++. ",
" .+@##>==@++++@@@++++@===@++++. ",
" .++@@===@+++++++++++@===@++++. ",
" .++++@=@+++++++++++++@@@+++++. ",
" ..++++@..++++++++++++++++++++. ",
"  ..+++++++++++++++++++++++++.  ",
"   ..........................   ",
"                                "};
