/* XPM */
static char * monster_bat_xpm[] = {
"32 32 5 1",
" 	c #40264D",
".	c #644574",
"+	c #563767",
"@	c #000000",
"#	c #F02929",
"                                ",
"   ..........................   ",
"  .++++++++++++++++++++++++++.  ",
" .++++++++++++++++++++++++++++. ",
" .@@++++++++++++++++++++++++@@. ",
" .+@@+++++++++++++++++++..+@@+. ",
" .+@@@+++++++++++++++++++.@@@+. ",
" .+@@@@++++++++++++++++++@@@@+. ",
" .+@@@@@+++@++++++++@+++@@@@@+. ",
" .@@@@@@@++@@++++++@@++@@@@@@@. ",
" @@@@@@@@@+@@@@@@@@@@+@@@@@@@@@ ",
"@@@@@@@@@@@@@@@@@@@@@@@@@@@@@@@@",
"@@@@@@@@@@@@@##@@@##@@@@@@@@@@@@",
"@@@+++++@@@@@@@@@@@@@@@@+++++@@@",
"@@+++++++@@@@@@@@@@@@@@+++++++@@",
"@.+++++++++@@@@@@@@@@+++++.+++.@",
" .+++++++++@@@@@@@@++++++. .++. ",
" .++++++++@@@@@@@@++++++.   .+. ",
" .+++++++@@@@@@@@++++++++. .++. ",
" .++++++++++++++++++++++++.+++. ",
" .++++++++++++++++++++++++++++. ",
" .++++++++++++++++++++++++++++. ",
" .++++++++++++++++++++++++++++. ",
" .++++++++++++++++++++++++++++. ",
" .++++++++++++++++++++++++++++. ",
" .++++++++++++++++++++++++++++. ",
" .+++++++++++++++++++++++.++++. ",
" .++++++.+++++++++++++++++++++. ",
" ..+++++..++++++++++++++++++++. ",
"  ..+++++++++++++++++++++++++.  ",
"   ..........................   ",
"                                "};
