/* XPM */
static char * player_xpm[] = {
"32 32 10 1",
" 	c #40264D",
".	c #644574",
"+	c #563767",
"@	c #04193F",
"#	c #0FEFFB",
"$	c #0696DB",
"%	c #03396B",
"&	c #FCFEFE",
"*	c #C3242F",
"=	c #E7333B",
"                                ",
"   ..........................   ",
"  .++++++++++++++++++++++++++.  ",
" .++++++++++++++++++++++++++++. ",
" .++++++++++++++++++++++++++++. ",
" .++++++++++++++++++++++..++++. ",
" .+++++++++++@@@@@+++++++.++++. ",
" .+++++++++@@###$$@@++++++++++. ",
" .+++++.++@######$%%@+++++++++. ",
" .++++...@#######@@%%@++++++++. ",
" .+++++.@########@@%%%@+++++++. ",
" .++++++@###@@@##$$%%@@+++++++. ",
" .+++++@###@@&&@#$$$@@&@++++++. ",
" .+++++@###@@&&@#$$$@@&@++++++. ",
" .+++++@###@@@@@#$$$@@@@++++++. ",
" .+++++@####@@@#$$$$%@@@++.+++. ",
" .+++++@########$$$$%%%@+. .++. ",
" .++++++@######$$$$%%%@+.   .+. ",
" .++++++@####$$$$@@%%%@++. .++. ",
" .+++++++@$$$$$$$$$%%@++++.+++. ",
" .+++++++@**$$$$$$%%%@++++++++. ",
" .+++++++@==***%%%%%*@++++++++. ",
" .++++++@%@====*****=@++++++++. ",
" .++++++@$%@@========@++++++++. ",
" .+++++@$$$$%@======@%@+++++++. ",
" .+++++@$$$$%%@@====%%@+++++++. ",
" .+++++@$$$%$$%%@@=@%%@++.++++. ",
" .++++++@%%$$$$$%%@%@@++++++++. ",
" ..+++++.@$$$$$%%%%%@+++++++++. ",
"  ..+++++@$$$$@@%%%%@++++++++.  ",
"   ......@$$$$@@%%%@.........   ",
"         @$$$@ @%%%@            "};
