/* XPM */
static char * space_xpm[] = {
"32 32 3 1",
" 	c #40264D",
".	c #644574",
"+	c #563767",
"                                ",
"   ..........................   ",
"  .++++++++++++++++++++++++++.  ",
" .++++++++++++++++++++++++++++. ",
" .++++++++++++++++++++++++++++. ",
" .++++++++++++++++++++++..++++. ",
" .+++++++++++++++++++++++.++++. ",
" .++++++++++++++++++++++++++++. ",
" .+++++.++++++++++++++++++++++. ",
" .++++...+++++++++++++++++++++. ",
" .+++++.++++++++++++++++++++++. ",
" .++++++++++++++++++++++++++++. ",
" .++++++++++++++++++++++++++++. ",
" .++++++++++++++++++++++++++++. ",
" .++++++++++++++++++++++++++++. ",
" .++++++++++++++++++++++++.+++. ",
" .+++++++++++++++++++++++. .++. ",
" .++++++++++++++++++++++.   .+. ",
" .+++++++++++++++++++++++. .++. ",
" .++++++++++++++++++++++++.+++. ",
" .++++++++++++++++++++++++++++. ",
" .++++++++++++++++++++++++++++. ",
" .++++++++++++++++++++++++++++. ",
" .++++++++++++++++++++++++++++. ",
" .++++++++++++++++++++++++++++. ",
" .++++++++++++++++++++++++++++. ",
" .+++++++++++++++++++++++.++++. ",
" .++++++.+++++++++++++++++++++. ",
" ..+++++..++++++++++++++++++++. ",
"  ..+++++++++++++++++++++++++.  ",
"   ..........................   ",
"                                "};
