/* XPM */
static char * wall_xpm[] = {
"32 32 43 1",
" 	c #40264D",
".	c #877193",
"+	c #62526A",
"@	c #473751",
"#	c #5F4F67",
"$	c #3D244B",
"%	c #5F4F66",
"&	c #3D244A",
"*	c #45354E",
"=	c #5B4D63",
"-	c #3B2248",
";	c #7E698B",
">	c #5C4C63",
",	c #5A4C63",
"'	c #43334C",
")	c #42334C",
"!	c #42334A",
"~	c #362042",
"{	c #361F41",
"]	c #766284",
"^	c #55465B",
"/	c #54465B",
"(	c #756183",
"_	c #382B40",
":	c #311C3D",
"<	c #4E4155",
"[	c #4E4154",
"}	c #4D4054",
"|	c #301B3A",
"1	c #4C4053",
"2	c #311B3B",
"3	c #6D5A7D",
"4	c #4C3F52",
"5	c #473C4D",
"6	c #2C1937",
"7	c #45394B",
"8	c #44384A",
"9	c #33273A",
"0	c #2D1836",
"a	c #2B1835",
"b	c #5B4B6E",
"c	c #2E2235",
"d	c #413546",
"                                ",
"... ...... ++++++ ...... ...... ",
"+++ ++++++ ++++++ ++++++ ++++++ ",
"@@@ @@@@@@ ++++++ @@@@@@ ++++++ ",
"                                ",
"++++++ ...... ++++++ ....... +++",
"++++++ ++++++ ++++++ +++++++ +++",
"@@@@@@ ++++++ ++++++ @@@@@@@ @@@",
"                                ",
"... ++++++ ...... ++++++ ...... ",
"+++ ++++++ ++++++ ++++++ ++++++ ",
"@@@ ++++++ @@@@@@ ++++++ ++++++ ",
"                                ",
"++++++ ++++++ ...... ....... ...",
"######$######$######$######%&%##",
"######$******$######$*******&%##",
"$$$$$$$$$$$$$$$$$$$$$$$$$$$&&&$$",
"===-;;;;;;-;;;;;;-;;;;;;-=>>,,=-",
"===-======-======-======-=>>,,=-",
"===-''''''-======-======-'))!!'-",
"~~~~~~~~~~~~~~~~~~~~~~~~~~~{{{~~",
"]]]]]]~^^^^^^~]]]]]]~^^^^^^/{(]]",
"^^^^^^~^^^^^^~^^^^^^~^^^^^^/{/^^",
"______:<<<<<<:______:<<<<<[}|1<<",
":::::::::::::::::::::::::::2|2::",
"<<<:333333:<<<<<<:333333:<[}41<:",
"55565555556555555655555565578756",
"99965555556999999655555565578756",
"6666666666666666666666666660a066",
"bbbbbbcbbbbbbcbbbbbbcbbbbbbbcbbb",
"ddddddcddddddcddddddcdddddddcddd",
"cccccccccccccccccccccccccccccccc"};
